<?xml version="1.0" encoding="UTF-8" standalone="no"?>
<svg
   xmlns:dc="http://purl.org/dc/elements/1.1/"
   xmlns:cc="http://creativecommons.org/ns#"
   xmlns:rdf="http://www.w3.org/1999/02/22-rdf-syntax-ns#"
   xmlns:svg="http://www.w3.org/2000/svg"
   xmlns="http://www.w3.org/2000/svg"
   xmlns:xlink="http://www.w3.org/1999/xlink"
   xmlns:sodipodi="http://sodipodi.sourceforge.net/DTD/sodipodi-0.dtd"
   xmlns:inkscape="http://www.inkscape.org/namespaces/inkscape"
   viewBox="0 0 512 512"
   version="1.1"
   id="svg4"
   sodipodi:docname="VirtualLightOmni.svg"
   inkscape:version="1.0.1 (1.0.1+r73)"
   width="512"
   height="512">
  <metadata
     id="metadata10">
    <rdf:RDF>
      <cc:Work
         rdf:about="">
        <dc:format>image/svg+xml</dc:format>
        <dc:type
           rdf:resource="http://purl.org/dc/dcmitype/StillImage" />
        <dc:title />
      </cc:Work>
    </rdf:RDF>
  </metadata>
  <defs
     id="defs8">
    <linearGradient
       inkscape:collect="always"
       id="linearGradient1772">
      <stop
         style="stop-color:#fa00ff;stop-opacity:0.31999999"
         offset="0"
         id="stop1768" />
      <stop
         style="stop-color:#ffff00;stop-opacity:0.31999999"
         offset="1"
         id="stop1770" />
    </linearGradient>
    <linearGradient
       inkscape:collect="always"
       xlink:href="#linearGradient1772"
       id="linearGradient1802"
       x1="80"
       y1="255.995"
       x2="432"
       y2="255.995"
       gradientUnits="userSpaceOnUse" />
  </defs>
  <sodipodi:namedview
     pagecolor="#ffffff"
     bordercolor="#666666"
     borderopacity="1"
     objecttolerance="10"
     gridtolerance="10"
     guidetolerance="10"
     inkscape:pageopacity="0"
     inkscape:pageshadow="2"
     inkscape:window-width="1920"
     inkscape:window-height="1016"
     id="namedview6"
     showgrid="false"
     inkscape:zoom="0.5952403"
     inkscape:cx="249.00536"
     inkscape:cy="255.40091"
     inkscape:window-x="1920"
     inkscape:window-y="27"
     inkscape:window-maximized="1"
     inkscape:current-layer="svg4"
     inkscape:document-rotation="0" />
  <path
     d="m 223.95525,383.88 c -0.01,-4.77 -0.72,-9.51 -2.15,-14.07 -5.59,-17.81 -22.82,-64.77 -62.17,-109.67 -20.54,-23.43 -31.52,-53.15 -31.61,-84.14 -0.2,-73.64 59.67,-128 127.95,-128 70.58,0 128,57.42 128,128 0,30.97 -11.24,60.85 -31.65,84.14 -39.11,44.61 -56.42,91.47 -62.1,109.46 -1.30715,4.94569 -2.19041,10.0339 -2.22,14.4 z"
     id="path837"
     sodipodi:nodetypes="ccccsscccc"
     style="fill:#ffffff;fill-opacity:1" />
  <path
     d="m 256,80 c -52.94,0 -96,43.06 -96,96 0,8.84 7.16,16 16,16 8.84,0 16,-7.16 16,-16 0,-35.3 28.72,-64 64,-64 8.84,0 16,-7.16 16,-16 0,-8.84 -7.16,-16 -16,-16 z m -79.94,379.17 c 0,3.15 0.93,6.22 2.68,8.84 l 24.51,36.84 c 2.97,4.46 7.97,7.14 13.32,7.14 h 78.85 c 5.36,0 10.36,-2.68 13.32,-7.14 l 24.51,-36.84 c 1.74,-2.62 2.67,-5.7 2.68,-8.84 l 0.05,-43.18 H 176.02 Z M 256,0 C 153.72,0 80,82.97 80,176 c 0,44.37 16.45,84.85 43.56,115.78 16.64,18.99 42.74,58.8 52.42,92.16 V 384 h 48 v -0.12 c -0.01,-4.77 -0.72,-9.51 -2.15,-14.07 C 216.24,352 199.01,305.04 159.66,260.14 139.12,236.71 128.14,206.99 128.05,176 127.85,102.36 187.72,48 256,48 c 70.58,0 128,57.42 128,128 0,30.97 -11.24,60.85 -31.65,84.14 -39.11,44.61 -56.42,91.47 -62.1,109.46 a 47.507,47.507 0 0 0 -2.22,14.3 v 0.1 h 48 v -0.05 c 9.68,-33.37 35.78,-73.18 52.42,-92.16 C 415.55,260.85 432,220.37 432,176 432,78.8 353.2,0 256,0 Z"
     id="path2"
     style="fill:url(#linearGradient1802);fill-opacity:1" />
</svg>
