<?xml version="1.0" encoding="UTF-8" standalone="no"?>
<svg
   xmlns:dc="http://purl.org/dc/elements/1.1/"
   xmlns:cc="http://creativecommons.org/ns#"
   xmlns:rdf="http://www.w3.org/1999/02/22-rdf-syntax-ns#"
   xmlns:svg="http://www.w3.org/2000/svg"
   xmlns="http://www.w3.org/2000/svg"
   xmlns:sodipodi="http://sodipodi.sourceforge.net/DTD/sodipodi-0.dtd"
   xmlns:inkscape="http://www.inkscape.org/namespaces/inkscape"
   viewBox="0 0 16 16"
   version="1.1"
   id="svg4"
   sodipodi:docname="VirtualLight.svg"
   inkscape:version="1.0.1 (1.0.1+r73)"
   width="16"
   height="16">
  <g
     id="g2108"
     transform="matrix(0.03125,0,0,0.03125,0,-8.621875e-6)">
    <path
       d="m 261.32998,107.26228 c -51.24111,0 -92.91929,41.67817 -92.91929,92.91928 0,8.55631 6.93023,15.48655 15.48656,15.48655 8.55631,0 15.48655,-6.93024 15.48655,-15.48655 0,-34.16718 27.79834,-61.94618 61.94618,-61.94618 8.55631,0 15.48655,-6.93023 15.48655,-15.48655 0,-8.55632 -6.93024,-15.48655 -15.48655,-15.48655 z M 198.8624,461.99586 c 0,2.02892 0.59896,4.00633 1.72618,5.69388 l 15.78697,23.72876 c 1.913,2.87271 5.13367,4.5989 8.57945,4.5989 h 50.78753 c 3.45242,0 6.67292,-1.72619 8.57947,-4.5989 l 15.78697,-23.72875 c 1.12069,-1.68756 1.71975,-3.6714 1.7262,-5.69388 l 0.0315,-27.81239 H 198.83595 Z m 23.64961,-125.84195 c -4.55508,-22.68036 -18.59513,-38.52999 -50.65993,-75.11727 -16.73726,-19.0922 -25.68445,-43.30989 -25.75778,-68.56245 -0.16291,-60.0064 48.62279,-104.30229 104.26155,-104.30229 57.51292,0 104.30226,46.78936 104.30226,104.30229 0,25.23625 -9.15903,49.58433 -25.79037,68.56245 -31.86922,36.35097 -45.97447,51.94025 -50.60289,74.84984 z m 53.94385,67.26024 51.35791,0.38386 v -0.048 c 9.36936,-32.29912 34.63179,-86.95227 50.73781,-105.32319 C 404.78198,268.47971 420.704,229.29875 420.704,186.35263 420.704,92.27152 344.43278,16.000276 250.35202,16.000276 151.35426,16.000276 80,96.30769 80,186.3523 c 0,42.94612 15.922108,82.12708 42.16212,112.06451 16.10602,18.3806 41.36844,73.03375 50.7378,105.3232 v 0.0585 l 51.36405,-0.38386 v -0.15286 z"
       id="path2"
       style="fill:#ff85ea;fill-opacity:1;stroke:#f4ff00;stroke-width:25.6;stroke-miterlimit:4;stroke-dasharray:none;stroke-opacity:0.69037938"
       sodipodi:nodetypes="ssssssscccsscccccccccsscccccccssscccccc" />
  </g>
  <metadata
     id="metadata10">
    <rdf:RDF>
      <cc:Work
         rdf:about="">
        <dc:format>image/svg+xml</dc:format>
        <dc:type
           rdf:resource="http://purl.org/dc/dcmitype/StillImage" />
        <dc:title />
      </cc:Work>
    </rdf:RDF>
  </metadata>
  <defs
     id="defs8" />
  <sodipodi:namedview
     pagecolor="#ffffff"
     bordercolor="#666666"
     borderopacity="1"
     objecttolerance="10"
     gridtolerance="10"
     guidetolerance="10"
     inkscape:pageopacity="0"
     inkscape:pageshadow="2"
     inkscape:window-width="1920"
     inkscape:window-height="1016"
     id="namedview6"
     showgrid="false"
     inkscape:zoom="19.04769"
     inkscape:cx="24.05205"
     inkscape:cy="-2.6381936"
     inkscape:window-x="1920"
     inkscape:window-y="27"
     inkscape:window-maximized="1"
     inkscape:current-layer="g2108"
     inkscape:document-rotation="0" />
</svg>
